<?xml version="1.0" encoding="UTF-8" standalone="no"?>
<svg
   xmlns:dc="http://purl.org/dc/elements/1.1/"
   xmlns:cc="http://creativecommons.org/ns#"
   xmlns:rdf="http://www.w3.org/1999/02/22-rdf-syntax-ns#"
   xmlns:svg="http://www.w3.org/2000/svg"
   xmlns="http://www.w3.org/2000/svg"
   xmlns:sodipodi="http://sodipodi.sourceforge.net/DTD/sodipodi-0.dtd"
   xmlns:inkscape="http://www.inkscape.org/namespaces/inkscape"
   width="32"
   height="32"
   viewBox="0 0 8.4666665 8.4666669"
   version="1.1"
   id="svg709"
   inkscape:version="1.0.1 (0767f8302a, 2020-10-17)"
   sodipodi:docname="monday.svg">
  <defs
     id="defs703" />
  <sodipodi:namedview
     id="base"
     pagecolor="#ffffff"
     bordercolor="#666666"
     borderopacity="1.0"
     inkscape:pageopacity="0.0"
     inkscape:pageshadow="2"
     inkscape:zoom="8.25"
     inkscape:cx="4.0597621"
     inkscape:cy="15.950714"
     inkscape:document-units="mm"
     inkscape:current-layer="layer1"
     inkscape:document-rotation="0"
     showgrid="false"
     units="px"
     inkscape:window-width="1366"
     inkscape:window-height="728"
     inkscape:window-x="0"
     inkscape:window-y="0"
     inkscape:window-maximized="1" />
  <metadata
     id="metadata706">
    <rdf:RDF>
      <cc:Work
         rdf:about="">
        <dc:format>image/svg+xml</dc:format>
        <dc:type
           rdf:resource="http://purl.org/dc/dcmitype/StillImage" />
        <dc:title></dc:title>
      </cc:Work>
    </rdf:RDF>
  </metadata>
  <g
     inkscape:label="Layer 1"
     inkscape:groupmode="layer"
     id="layer1">
    <path
       d="M 7.731589,0.34490894 H 7.4310097 c 0.00748,-0.0240358 0.01551,-0.0480727 0.01551,-0.0746932 C 7.447055,0.13323575 7.3315298,0.02184266 7.1895301,0.02184266 c -0.1419997,0 -0.2569901,0.11139309 -0.2569901,0.24837305 0,0.0266206 0.00748,0.0506564 0.015777,0.0746932 H 5.964214 c 0.00775,-0.0240358 0.01551,-0.0480727 0.01551,-0.0746932 C 5.9794568,0.13297728 5.8644665,0.02184266 5.7221994,0.02184266 c -0.1417323,0 -0.25699,0.11139309 -0.25699,0.24837305 0,0.0266206 0.00775,0.0506564 0.015777,0.0746932 H 4.4968835 c 0.00775,-0.0240358 0.015511,-0.0480727 0.015511,-0.0746932 -2.676e-4,-0.13697996 -0.115258,-0.24837305 -0.2572577,-0.24837305 -0.1419997,0 -0.25699,0.11139309 -0.25699,0.24837305 0,0.0266206 0.00775,0.0506564 0.01551,0.0746932 H 3.0295531 c 0.00775,-0.0240358 0.015511,-0.0480727 0.015511,-0.0746932 -2e-7,-0.13697996 -0.115258,-0.24837305 -0.2572578,-0.24837305 -0.1419996,0 -0.25699,0.11139309 -0.25699,0.24837305 0,0.0266206 0.00748,0.0506564 0.01551,0.0746932 H 1.5622225 c 0.00802,-0.0240358 0.015511,-0.0480727 0.015511,-0.0746932 -10e-8,-0.13723843 -0.1149905,-0.24837305 -0.2569903,-0.24837305 -0.1419997,0 -0.2569901,0.11139309 -0.2569901,0.24837305 0,0.0266206 0.00775,0.0506564 0.015511,0.0746932 H 0.7786837 c -0.4056753,0 -0.73540346,0.31867212 -0.73540346,0.71074479 v 6.71977 c 0,0.3923312 0.32972816,0.7107449 0.73540346,0.7107449 h 6.122568 L 8.4669925,6.972928 V 1.0556537 c 0,-0.39207264 -0.3294608,-0.71074476 -0.7354035,-0.71074476 z M 8.0658633,6.8121705 7.982696,6.8925493 H 7.3526557 c -0.2944287,0 -0.5348388,0.2326074 -0.5348388,0.5169054 v 0.608656 l -0.0829,0.080379 H 0.7786837 C 0.5944317,8.0984896 0.4444094,7.9534976 0.4444094,7.7754237 V 2.3479172 h 7.6214539 z"
       id="path82"
       style="stroke-width:0.262898;fill:#ff5555" />
    <g
       aria-label="SEG"
       transform="scale(1.0095505,0.99053985)"
       id="text156"
       style="font-style:normal;font-weight:normal;font-size:3.26785px;line-height:1.25;font-family:sans-serif;fill:#ff5555;fill-opacity:1;stroke:none;stroke-width:0.0816963">
      <path
         d="M 2.6260005,3.9238086 V 4.2381477 Q 2.4425031,4.1503881 2.2797489,4.1073061 2.1169946,4.0642241 1.9654098,4.0642241 q -0.2632789,0 -0.4068856,0.1021203 -0.1420111,0.1021203 -0.1420111,0.2904046 0,0.1579673 0.094142,0.2393445 0.095738,0.079782 0.3606123,0.129246 l 0.1946669,0.039891 q 0.3606123,0.068612 0.5313447,0.2425358 0.172328,0.172328 0.172328,0.4627326 0,0.3462517 -0.2329619,0.5249622 -0.2313664,0.1787106 -0.6797383,0.1787106 -0.1691368,0 -0.3606124,-0.038295 Q 1.3064147,6.1975812 1.102174,6.1225866 V 5.7906955 q 0.1962625,0.1100985 0.3845468,0.1659455 0.1882844,0.055847 0.3701862,0.055847 0.2760439,0 0.4260331,-0.1085028 0.1499892,-0.1085029 0.1499892,-0.3095522 0,-0.1755193 -0.1085028,-0.2744484 Q 2.2175193,5.2210557 1.9717923,5.1715912 L 1.7755298,5.133296 Q 1.4149175,5.0614927 1.2537589,4.9083122 1.0926003,4.7551318 1.0926003,4.4822791 q 0,-0.3159347 0.2217925,-0.4978365 0.2233882,-0.1819018 0.6143175,-0.1819018 0.1675411,0 0.3414648,0.030317 0.1739236,0.030317 0.3558254,0.090951 z"
         style="stroke-width:0.0816963;fill:#ff5555"
         id="path807" />
      <path
         d="m 3.2722307,3.8456228 h 1.5062746 v 0.271257 H 3.5945479 V 4.8221482 H 4.7290408 V 5.0934053 H 3.5945479 V 5.956641 H 4.8072266 V 6.2278981 H 3.2722307 Z"
         style="stroke-width:0.0816963;fill:#ff5555"
         id="path809" />
      <path
         d="M 6.9645178,5.888029 V 5.2481814 H 6.43796 V 4.9833068 h 0.8456838 v 1.0227988 q -0.1866887,0.1324372 -0.4116725,0.2010493 -0.2249838,0.067017 -0.4802846,0.067017 -0.5584704,0 -0.8744051,-0.3255085 -0.3143391,-0.3271041 -0.3143391,-0.909509 0,-0.5840005 0.3143391,-0.909509 0.3159347,-0.3271041 0.8744051,-0.3271041 0.232962,0 0.4419895,0.057443 0.2106231,0.057443 0.387738,0.1691368 V 4.3721806 Q 7.0427037,4.2205958 6.8416543,4.1440055 6.640605,4.0674153 6.4188124,4.0674153 q -0.4372025,0 -0.6573995,0.2441314 -0.2186012,0.2441313 -0.2186012,0.7276072 0,0.4818802 0.2186012,0.7260116 0.220197,0.2441313 0.6573995,0.2441313 0.1707324,0 0.3047653,-0.028721 0.1340329,-0.030317 0.2409401,-0.092546 z"
         style="stroke-width:0.0816963;fill:#ff5555"
         id="path811" />
    </g>
    <text
       xml:space="preserve"
       style="font-style:normal;font-weight:normal;font-size:10.5833px;line-height:1.25;font-family:sans-serif;fill:#000000;fill-opacity:1;stroke:none;stroke-width:0.264583"
       x="-10.137959"
       y="3.1530395"
       id="text797"><tspan
         sodipodi:role="line"
         id="tspan795"
         x="-10.137959"
         y="3.1530395"
         style="stroke-width:0.264583"></tspan></text>
  </g>
</svg>
